<svg xmlns="http://www.w3.org/2000/svg" xmlns:xlink="http://www.w3.org/1999/xlink" contentStyleType="text/css" data-diagram-type="CLASS" height="1100px" preserveAspectRatio="none" style="width:1424px;height:1100px;background:#FFFFFF;" version="1.1" viewBox="0 0 1424 1100" width="1424px" zoomAndPan="magnify"><defs/><g><!--cluster ???? (DNF) ??--><g class="cluster" data-entity=".... .DNF. .." data-source-line="31" data-uid="ent0008" id="cluster_.... .DNF. .."><path d="M745.42,544.56 L885.8659,544.56 A3.75,3.75 0 0 1 888.3659,547.06 L895.3659,566.8569 L1179.42,566.8569 A2.5,2.5 0 0 1 1181.92,569.3569 L1181.92,950.73 A2.5,2.5 0 0 1 1179.42,953.23 L745.42,953.23 A2.5,2.5 0 0 1 742.92,950.73 L742.92,547.06 A2.5,2.5 0 0 1 745.42,544.56" fill="#87CEFA" style="stroke:#000000;stroke-width:1.5;"/><line style="stroke:#000000;stroke-width:1.5;" x1="742.92" x2="895.3659" y1="566.8569" y2="566.8569"/><text fill="#000000" font-family="sans-serif" font-size="14" font-weight="bold" lengthAdjust="spacing" textLength="139.4459" x="746.92" y="559.5551">&#26512;&#21462;&#33539;&#24335; (DNF) &#20998;&#25903;</text></g><!--cluster ???? (CNF) ??--><g class="cluster" data-entity=".... .CNF. .." data-source-line="49" data-uid="ent0015" id="cluster_.... .CNF. .."><path d="M263.42,703.45 L402.5192,703.45 A3.75,3.75 0 0 1 405.0192,705.95 L412.0192,725.7469 L716.42,725.7469 A2.5,2.5 0 0 1 718.92,728.2469 L718.92,1090.62 A2.5,2.5 0 0 1 716.42,1093.12 L263.42,1093.12 A2.5,2.5 0 0 1 260.92,1090.62 L260.92,705.95 A2.5,2.5 0 0 1 263.42,703.45" fill="#90EE90" style="stroke:#000000;stroke-width:1.5;"/><line style="stroke:#000000;stroke-width:1.5;" x1="260.92" x2="412.0192" y1="725.7469" y2="725.7469"/><text fill="#000000" font-family="sans-serif" font-size="14" font-weight="bold" lengthAdjust="spacing" textLength="138.0992" x="264.92" y="718.4451">&#21512;&#21462;&#33539;&#24335; (CNF) &#20998;&#25903;</text></g><g class="entity" data-entity="Minterm" data-source-line="32" data-uid="ent0009" id="entity_Minterm"><rect fill="#F5F5F5" height="60.8906" rx="2.5" ry="2.5" style="stroke:#4A4A4A;stroke-width:0.5;" width="208.5051" x="758.67" y="579.56"/><text fill="#000000" font-family="sans-serif" font-size="14" font-weight="bold" lengthAdjust="spacing" textLength="126.0477" x="799.8987" y="594.5551">&#26497;&#23567;&#39033; (Minterm)</text><line style="stroke:#4A4A4A;stroke-width:0.5;" x1="759.67" x2="966.1751" y1="599.8569" y2="599.8569"/><text fill="#000000" font-family="sans-serif" font-size="14" lengthAdjust="spacing" textLength="196.5051" x="764.67" y="616.852">&#25152;&#26377;&#21464;&#20803;&#37117;&#20986;&#29616;&#19968;&#27425;&#30340;&#8220;&#21512;&#21462;&#8221;&#24335;</text><text fill="#000000" font-family="sans-serif" font-size="14" lengthAdjust="spacing" textLength="111.6992" x="764.67" y="633.1489">&#22914;: m&#8321; = &#172;p &#8743; q</text></g><g class="entity" data-entity="GMN10" data-source-line="36" data-uid="ent0011" id="entity_GMN10"><path d="M1001.69,597.44 L1001.69,606 L967.38,610 L1001.69,614 L1001.69,622.5728 A0,0 0 0 0 1001.69,622.5728 L1166.1599,622.5728 A0,0 0 0 0 1166.1599,622.5728 L1166.1599,607.44 L1156.1599,597.44 L1001.69,597.44 A0,0 0 0 0 1001.69,597.44" fill="#FFFFE0" style="stroke:#BDB76B;stroke-width:0.5;"/><path d="M1156.1599,597.44 L1156.1599,607.44 L1166.1599,607.44 L1156.1599,597.44" fill="#FFFFE0" style="stroke:#BDB76B;stroke-width:0.5;"/><text fill="#000000" font-family="'SimSun'" font-size="13" lengthAdjust="spacing" textLength="52.0001" x="1007.69" y="614.5069">&#20351;&#20844;&#24335;&#20026;</text><text fill="#000000" font-family="'SimSun'" font-size="13" font-weight="bold" lengthAdjust="spacing" textLength="13" x="1059.6901" y="614.5069">&#30495;</text><text fill="#000000" font-family="'SimSun'" font-size="13" lengthAdjust="spacing" textLength="78.4698" x="1072.6901" y="614.5069">&#30340;&#8220;&#21407;&#23376;&#26465;&#20214;&#8221;</text></g><g class="entity" data-entity="PDNF" data-source-line="38" data-uid="ent0013" id="entity_PDNF"><rect fill="#F5F5F5" height="60.8906" rx="2.5" ry="2.5" style="stroke:#4A4A4A;stroke-width:0.5;" width="222.505" x="888.67" y="738.45"/><text fill="#000000" font-family="sans-serif" font-size="14" font-weight="bold" lengthAdjust="spacing" textLength="130.8327" x="934.5062" y="753.4451">&#20027;&#26512;&#21462;&#33539;&#24335; (PDNF)</text><line style="stroke:#4A4A4A;stroke-width:0.5;" x1="889.67" x2="1110.175" y1="758.7469" y2="758.7469"/><text fill="#000000" font-family="sans-serif" font-size="14" lengthAdjust="spacing" textLength="27.9999" x="894.67" y="775.742">&#25152;&#26377;</text><text fill="#000000" font-family="sans-serif" font-size="14" font-weight="bold" lengthAdjust="spacing" textLength="41.9998" x="922.6699" y="775.742">&#26497;&#23567;&#39033;</text><text fill="#000000" font-family="sans-serif" font-size="14" lengthAdjust="spacing" textLength="56.5057" x="964.6697" y="775.742">&#30340;&#8220;&#26512;&#21462;&#8221;</text><text fill="#000000" font-family="sans-serif" font-size="14" lengthAdjust="spacing" textLength="210.505" x="894.67" y="792.0389">&#21807;&#19968;&#30340;&#65292;&#20844;&#24335;&#30340;&#8220;&#26631;&#20934;&#36523;&#20221;&#35777;&#8221;&#20043;&#19968;</text></g><g class="entity" data-entity="DNF" data-source-line="43" data-uid="ent0014" id="entity_DNF"><rect fill="#F5F5F5" height="60.8906" rx="2.5" ry="2.5" style="stroke:#4A4A4A;stroke-width:0.5;" width="150.3934" x="992.72" y="876.34"/><text fill="#000000" font-family="sans-serif" font-size="14" font-weight="bold" lengthAdjust="spacing" textLength="106.572" x="1014.6307" y="891.3351">&#26512;&#21462;&#33539;&#24335; (DNF)</text><line style="stroke:#4A4A4A;stroke-width:0.5;" x1="993.72" x2="1142.1134" y1="896.6369" y2="896.6369"/><text fill="#000000" font-family="sans-serif" font-size="14" lengthAdjust="spacing" textLength="131.8237" x="998.72" y="913.632">(&#25991;&#23383;&#30340;&#21512;&#21462;) &#30340; &#26512;&#21462;</text><text fill="#000000" font-family="sans-serif" font-size="14" lengthAdjust="spacing" textLength="138.3934" x="998.72" y="929.9289">&#24418;&#24335;: (A&#8743;B) &#8744; (C&#8743;D)</text></g><g class="entity" data-entity="Maxterm" data-source-line="50" data-uid="ent0016" id="entity_Maxterm"><rect fill="#F5F5F5" height="60.8906" rx="2.5" ry="2.5" style="stroke:#4A4A4A;stroke-width:0.5;" width="208.5051" x="494.67" y="738.45"/><text fill="#000000" font-family="sans-serif" font-size="14" font-weight="bold" lengthAdjust="spacing" textLength="129.7596" x="534.0427" y="753.4451">&#26497;&#22823;&#39033; (Maxterm)</text><line style="stroke:#4A4A4A;stroke-width:0.5;" x1="495.67" x2="702.1751" y1="758.7469" y2="758.7469"/><text fill="#000000" font-family="sans-serif" font-size="14" lengthAdjust="spacing" textLength="196.5051" x="500.67" y="775.742">&#25152;&#26377;&#21464;&#20803;&#37117;&#20986;&#29616;&#19968;&#27425;&#30340;&#8220;&#26512;&#21462;&#8221;&#24335;</text><text fill="#000000" font-family="sans-serif" font-size="14" lengthAdjust="spacing" textLength="110.1406" x="500.67" y="792.0389">&#22914;: M&#8321; = p &#8744; &#172;q</text></g><g class="entity" data-entity="GMN17" data-source-line="54" data-uid="ent0018" id="entity_GMN17"><path d="M295.69,756.33 L295.69,781.4628 A0,0 0 0 0 295.69,781.4628 L460.1599,781.4628 A0,0 0 0 0 460.1599,781.4628 L460.1599,774.33 L494.19,768.89 L460.1599,766.33 L460.1599,766.33 L450.1599,756.33 L295.69,756.33 A0,0 0 0 0 295.69,756.33" fill="#FFFFE0" style="stroke:#BDB76B;stroke-width:0.5;"/><path d="M450.1599,756.33 L450.1599,766.33 L460.1599,766.33 L450.1599,756.33" fill="#FFFFE0" style="stroke:#BDB76B;stroke-width:0.5;"/><text fill="#000000" font-family="'SimSun'" font-size="13" lengthAdjust="spacing" textLength="52.0001" x="301.69" y="773.3969">&#20351;&#20844;&#24335;&#20026;</text><text fill="#000000" font-family="'SimSun'" font-size="13" font-weight="bold" lengthAdjust="spacing" textLength="13" x="353.6901" y="773.3969">&#20551;</text><text fill="#000000" font-family="'SimSun'" font-size="13" lengthAdjust="spacing" textLength="78.4698" x="366.6901" y="773.3969">&#30340;&#8220;&#21407;&#23376;&#26465;&#20214;&#8221;</text></g><g class="entity" data-entity="PCNF" data-source-line="56" data-uid="ent0020" id="entity_PCNF"><rect fill="#F5F5F5" height="60.8906" rx="2.5" ry="2.5" style="stroke:#4A4A4A;stroke-width:0.5;" width="222.505" x="480.67" y="876.34"/><text fill="#000000" font-family="sans-serif" font-size="14" font-weight="bold" lengthAdjust="spacing" textLength="129.486" x="527.1795" y="891.3351">&#20027;&#21512;&#21462;&#33539;&#24335; (PCNF)</text><line style="stroke:#4A4A4A;stroke-width:0.5;" x1="481.67" x2="702.175" y1="896.6369" y2="896.6369"/><text fill="#000000" font-family="sans-serif" font-size="14" lengthAdjust="spacing" textLength="27.9999" x="486.67" y="913.632">&#25152;&#26377;</text><text fill="#000000" font-family="sans-serif" font-size="14" font-weight="bold" lengthAdjust="spacing" textLength="41.9998" x="514.6699" y="913.632">&#26497;&#22823;&#39033;</text><text fill="#000000" font-family="sans-serif" font-size="14" lengthAdjust="spacing" textLength="56.5057" x="556.6697" y="913.632">&#30340;&#8220;&#21512;&#21462;&#8221;</text><text fill="#000000" font-family="sans-serif" font-size="14" lengthAdjust="spacing" textLength="210.505" x="486.67" y="929.9289">&#21807;&#19968;&#30340;&#65292;&#20844;&#24335;&#30340;&#8220;&#26631;&#20934;&#36523;&#20221;&#35777;&#8221;&#20043;&#20108;</text></g><g class="entity" data-entity="Clause" data-source-line="61" data-uid="ent0021" id="entity_Clause"><rect fill="#F5F5F5" height="60.8906" rx="2.5" ry="2.5" style="stroke:#4A4A4A;stroke-width:0.5;" width="168.8474" x="276.5" y="876.34"/><text fill="#000000" font-family="sans-serif" font-size="14" font-weight="bold" lengthAdjust="spacing" textLength="154.8474" x="283.5" y="891.3351">&#23376;&#21477; (Clause) / &#26512;&#21462;&#24335;</text><line style="stroke:#4A4A4A;stroke-width:0.5;" x1="277.5" x2="444.3474" y1="896.6369" y2="896.6369"/><text fill="#000000" font-family="sans-serif" font-size="14" lengthAdjust="spacing" textLength="84.5056" x="282.5" y="913.632">&#25991;&#23383;&#30340;&#8220;&#26512;&#21462;&#8221;</text><text fill="#000000" font-family="sans-serif" font-size="14" lengthAdjust="spacing" textLength="82.7421" x="282.5" y="929.9289">&#22914;: (p &#8744; &#172;q)</text></g><g class="entity" data-entity="CNF" data-source-line="65" data-uid="ent0022" id="entity_CNF"><rect fill="#F5F5F5" height="60.8906" rx="2.5" ry="2.5" style="stroke:#4A4A4A;stroke-width:0.5;" width="150.3934" x="380.72" y="1016.23"/><text fill="#000000" font-family="sans-serif" font-size="14" font-weight="bold" lengthAdjust="spacing" textLength="105.2253" x="403.304" y="1031.2251">&#21512;&#21462;&#33539;&#24335; (CNF)</text><line style="stroke:#4A4A4A;stroke-width:0.5;" x1="381.72" x2="530.1134" y1="1036.5269" y2="1036.5269"/><text fill="#000000" font-family="sans-serif" font-size="14" font-weight="bold" lengthAdjust="spacing" textLength="27.9999" x="386.72" y="1053.522">&#23376;&#21477;</text><text fill="#000000" font-family="sans-serif" font-size="14" lengthAdjust="spacing" textLength="56.5057" x="414.7199" y="1053.522">&#30340;&#8220;&#21512;&#21462;&#8221;</text><text fill="#000000" font-family="sans-serif" font-size="14" lengthAdjust="spacing" textLength="138.3934" x="386.72" y="1069.8189">&#24418;&#24335;: (A&#8744;B) &#8743; (C&#8744;D)</text></g><g class="entity" data-entity="Var" data-source-line="15" data-uid="ent0002" id="entity_Var"><rect fill="#F5F5F5" height="60.8906" rx="2.5" ry="2.5" style="stroke:#4A4A4A;stroke-width:0.5;" width="151.8423" x="7" y="7"/><text fill="#000000" font-family="sans-serif" font-size="14" font-weight="bold" lengthAdjust="spacing" textLength="103.906" x="30.9681" y="21.9951">&#21629;&#39064;&#21464;&#20803; (p, q)</text><line style="stroke:#4A4A4A;stroke-width:0.5;" x1="8" x2="157.8423" y1="27.2969" y2="27.2969"/><text fill="#000000" font-family="sans-serif" font-size="14" lengthAdjust="spacing" textLength="83.9996" x="13" y="44.292">&#26368;&#22522;&#26412;&#30340;&#30742;&#22836;</text><text fill="#000000" font-family="sans-serif" font-size="14" lengthAdjust="spacing" textLength="139.8423" x="13" y="60.5889">&#22914;&#65306;p &#20195;&#34920;&#8220;&#20170;&#22825;&#19979;&#38632;&#8221;</text></g><g class="entity" data-entity="Literal" data-source-line="20" data-uid="ent0003" id="entity_Literal"><rect fill="#F5F5F5" height="60.8906" rx="2.5" ry="2.5" style="stroke:#4A4A4A;stroke-width:0.5;" width="123.9995" x="383.92" y="144.89"/><text fill="#000000" font-family="sans-serif" font-size="14" font-weight="bold" lengthAdjust="spacing" textLength="96.7284" x="397.5556" y="159.8851">&#25991;&#23383; (Literal)</text><line style="stroke:#4A4A4A;stroke-width:0.5;" x1="384.92" x2="506.9195" y1="165.1869" y2="165.1869"/><text fill="#000000" font-family="sans-serif" font-size="14" lengthAdjust="spacing" textLength="111.9995" x="389.92" y="182.182">&#21464;&#20803;&#26412;&#36523;&#25110;&#20854;&#21542;&#23450;</text><text fill="#000000" font-family="sans-serif" font-size="14" lengthAdjust="spacing" textLength="75.5712" x="389.92" y="198.4789">&#20363;&#22914;: p, &#172;p</text></g><g class="entity" data-entity="GMN4" data-source-line="24" data-uid="ent0005" id="entity_GMN4"><path d="M106.45,155.2 L106.45,195.4656 A0,0 0 0 0 106.45,195.4656 L349.3897,195.4656 A0,0 0 0 0 349.3897,195.4656 L349.3897,179.33 L383.52,175.33 L349.3897,171.33 L349.3897,165.2 L339.3897,155.2 L106.45,155.2 A0,0 0 0 0 106.45,155.2" fill="#FFFFE0" style="stroke:#BDB76B;stroke-width:0.5;"/><path d="M339.3897,155.2 L339.3897,165.2 L349.3897,165.2 L339.3897,155.2" fill="#FFFFE0" style="stroke:#BDB76B;stroke-width:0.5;"/><text fill="#000000" font-family="'SimSun'" font-size="13" lengthAdjust="spacing" textLength="156.9396" x="112.45" y="172.2669">&#8220;&#30701;&#35821;&#8221;&#22312;&#36825;&#19968;&#33324;&#21483;&#8220;&#25991;&#23383;&#8221;&#12290;</text><text fill="#000000" font-family="'SimSun'" font-size="13" lengthAdjust="spacing" textLength="221.9397" x="112.45" y="187.3997">&#21487;&#20197;&#29702;&#35299;&#25104;&#24102;&#8220;&#27491;&#30005;&#8221;&#25110;&#8220;&#36127;&#30005;&#8221;&#30340;&#30742;&#22836;&#12290;</text></g><g class="entity" data-entity="Formula" data-source-line="26" data-uid="ent0007" id="entity_Formula"><rect fill="#F5F5F5" height="60.8906" rx="2.5" ry="2.5" style="stroke:#4A4A4A;stroke-width:0.5;" width="261.5793" x="299.13" y="282.78"/><text fill="#000000" font-family="sans-serif" font-size="14" font-weight="bold" lengthAdjust="spacing" textLength="55.9998" x="401.9198" y="297.7751">&#21629;&#39064;&#20844;&#24335;</text><line style="stroke:#4A4A4A;stroke-width:0.5;" x1="300.13" x2="559.7093" y1="303.0769" y2="303.0769"/><text fill="#000000" font-family="sans-serif" font-size="14" lengthAdjust="spacing" textLength="249.5793" x="305.13" y="320.072">&#29992;&#36923;&#36753;&#32852;&#32467;&#35789;(&#8743;, &#8744;, &#172;, &#8594;)&#32452;&#25104;&#30340;&#34920;&#36798;&#24335;</text><text fill="#000000" font-family="sans-serif" font-size="14" lengthAdjust="spacing" textLength="110.7763" x="305.13" y="336.3689">&#22914;: p &#8743; (q &#8744; &#172;p)</text></g><g class="entity" data-entity="TruthTable" data-source-line="71" data-uid="ent0023" id="entity_TruthTable"><rect fill="#F5F5F5" height="60.8906" rx="2.5" ry="2.5" style="stroke:#4A4A4A;stroke-width:0.5;" width="165.9993" x="346.92" y="420.67"/><text fill="#000000" font-family="sans-serif" font-size="14" font-weight="bold" lengthAdjust="spacing" textLength="69.9997" x="394.9198" y="435.6651">&#30495;&#20540;&#34920;&#25216;&#26415;</text><line style="stroke:#4A4A4A;stroke-width:0.5;" x1="347.92" x2="511.9193" y1="440.9669" y2="440.9669"/><text fill="#000000" font-family="sans-serif" font-size="14" lengthAdjust="spacing" textLength="153.9993" x="352.92" y="457.962">&#20998;&#26512;&#20844;&#24335;&#30495;&#20551;&#30340;&#26680;&#24515;&#24037;&#20855;</text><text fill="#000000" font-family="sans-serif" font-size="14" lengthAdjust="spacing" textLength="125.9995" x="352.92" y="474.2589">&#27599;&#19968;&#34892;&#23545;&#24212;&#19968;&#20010;&#36171;&#20540;</text></g><g class="entity" data-entity="Encoding" data-source-line="76" data-uid="ent0024" id="entity_Encoding"><rect fill="#F5F5F5" height="60.8906" rx="2.5" ry="2.5" style="stroke:#4A4A4A;stroke-width:0.5;" width="157.537" x="635.15" y="420.67"/><text fill="#000000" font-family="sans-serif" font-size="14" font-weight="bold" lengthAdjust="spacing" textLength="27.9999" x="699.9186" y="435.6651">&#32534;&#30721;</text><line style="stroke:#4A4A4A;stroke-width:0.5;" x1="636.15" x2="791.687" y1="440.9669" y2="440.9669"/><text fill="#000000" font-family="sans-serif" font-size="14" lengthAdjust="spacing" textLength="139.9994" x="641.15" y="457.962">&#21464;&#20803;&#36171;&#20540;&#30340;&#20108;&#36827;&#21046;&#34920;&#31034;</text><text fill="#000000" font-family="sans-serif" font-size="14" lengthAdjust="spacing" textLength="145.537" x="641.15" y="474.2589">&#22914;: (p=0, q=1) -&gt; 01</text></g><g class="entity" data-entity="DNF_Unit" data-source-line="106" data-uid="ent0039" id="entity_DNF_Unit"><rect fill="#F5F5F5" height="60.8906" rx="2.5" ry="2.5" style="stroke:#4A4A4A;stroke-width:0.5;" width="113.3054" x="1091.27" y="282.78"/><text fill="#000000" font-family="sans-serif" font-size="14" lengthAdjust="spacing" textLength="99.3054" x="1098.27" y="297.7751">DNF&#30340;&#22522;&#26412;&#21333;&#20803;</text><line style="stroke:#4A4A4A;stroke-width:0.5;" x1="1092.27" x2="1203.5754" y1="303.0769" y2="303.0769"/><text fill="#000000" font-family="sans-serif" font-size="14" lengthAdjust="spacing" textLength="84.5056" x="1097.27" y="320.072">&#25991;&#23383;&#30340;&#8220;&#21512;&#21462;&#8221;</text><text fill="#000000" font-family="sans-serif" font-size="14" lengthAdjust="spacing" textLength="82.7421" x="1097.27" y="336.3689">&#22914;: (p &#8743; &#172;q)</text></g><!--link Var to Literal--><g class="link" data-entity-1="Var" data-entity-2="Literal" data-source-line="83" data-uid="lnk25" id="link_Var_Literal"><path codeLine="83" d="M159.02,66.93 C225.65,91.87 315.6608,125.5666 377.8808,148.8566" fill="none" id="Var-to-Literal" style="stroke:#4A4A4A;stroke-width:1;"/><polygon fill="#4A4A4A" points="383.5,150.96,376.4734,144.0588,378.8173,149.2072,373.6689,151.5511,383.5,150.96" style="stroke:#4A4A4A;stroke-width:1;"/><text fill="#000000" font-family="'SimSun'" font-size="13" lengthAdjust="spacing" textLength="90.3971" x="287.92" y="110.9569">&#26159;&#26500;&#25104;...&#30340;&#22522;&#30784;</text></g><!--link Literal to Formula--><g class="link" data-entity-1="Literal" data-entity-2="Formula" data-source-line="84" data-uid="lnk26" id="link_Literal_Formula"><path codeLine="84" d="M442.41,206.15 C439.74,228.81 436.7927,253.8713 434.1227,276.5113" fill="none" id="Literal-to-Formula" style="stroke:#4A4A4A;stroke-width:1;"/><polygon fill="#4A4A4A" points="433.42,282.47,438.4466,274.0004,434.0056,277.5044,430.5016,273.0635,433.42,282.47" style="stroke:#4A4A4A;stroke-width:1;"/><text fill="#000000" font-family="'SimSun'" font-size="13" lengthAdjust="spacing" textLength="26" x="438.92" y="248.8469">&#36890;&#36807;</text><text fill="#000000" font-family="'SimSun'" font-size="13" font-weight="bold" lengthAdjust="spacing" textLength="110.6778" x="469.0524" y="248.8469">&#21512;&#21462;(&#8743;) / &#26512;&#21462;(&#8744;)</text><text fill="#000000" font-family="'SimSun'" font-size="13" lengthAdjust="spacing" textLength="39" x="583.8625" y="248.8469">&#31561;&#26500;&#25104;</text></g><!--link Var to Formula--><g class="link" data-entity-1="Var" data-entity-2="Formula" data-source-line="85" data-uid="lnk27" id="link_Var_Formula"><path codeLine="85" d="M74.56,68.15 C66.26,104.52 58.67,166.15 88.92,205.78 C115.17,240.16 208.2134,267.3761 292.7934,286.2061" fill="none" id="Var-to-Formula" style="stroke:#4A4A4A;stroke-width:1;"/><polygon fill="#4A4A4A" points="298.65,287.51,290.7343,281.6498,293.7695,286.4235,288.9958,289.4586,298.65,287.51" style="stroke:#4A4A4A;stroke-width:1;"/></g><!--link Formula to TruthTable--><g class="link" data-entity-1="Formula" data-entity-2="TruthTable" data-source-line="87" data-uid="lnk28" id="link_Formula_TruthTable"><path codeLine="87" d="M429.92,350.04 C429.92,372.7 429.92,391.72 429.92,414.36" fill="none" id="Formula-TruthTable" style="stroke:#4A4A4A;stroke-width:1;stroke-dasharray:7,7;"/><polygon fill="#4A4A4A" points="429.92,344.04,425.92,353.04,429.92,349.04,433.92,353.04,429.92,344.04" style="stroke:#4A4A4A;stroke-width:1;"/><polygon fill="#4A4A4A" points="429.92,420.36,433.92,411.36,429.92,415.36,425.92,411.36,429.92,420.36" style="stroke:#4A4A4A;stroke-width:1;"/><text fill="#000000" font-family="'SimSun'" font-size="13" lengthAdjust="spacing" textLength="90.3971" x="430.92" y="386.7369">&#26159;&#20998;&#26512;...&#30340;&#24037;&#20855;</text></g><!--link TruthTable to Minterm--><g class="link" data-entity-1="TruthTable" data-entity-2="Minterm" data-source-line="89" data-uid="lnk29" id="link_TruthTable_Minterm"><path codeLine="89" d="M482.87,481.93 C515.54,498.79 558.92,518.46 599.92,528.56 C656.99,542.62 675.48,520.15 731.92,536.56 C763.49,545.73 790.785,560.3135 815.445,575.9735" fill="none" id="TruthTable-to-Minterm" style="stroke:#4A4A4A;stroke-width:1;"/><polygon fill="#4A4A4A" points="820.51,579.19,815.0568,570.9886,816.2892,576.5096,810.7682,577.742,820.51,579.19" style="stroke:#4A4A4A;stroke-width:1;"/><text fill="#000000" font-family="'SimSun'" font-size="13" font-weight="bold" lengthAdjust="spacing" textLength="52.0001" x="600.92" y="524.6269">&#20026;&#30495;&#30340;&#34892;</text><text fill="#000000" font-family="'SimSun'" font-size="13" lengthAdjust="spacing" textLength="104.0001" x="657.0524" y="524.6269">&#23545;&#24212;&#21807;&#19968;&#30340;&#26497;&#23567;&#39033;</text></g><!--link TruthTable to Maxterm--><g class="link" data-entity-1="TruthTable" data-entity-2="Maxterm" data-source-line="90" data-uid="lnk30" id="link_TruthTable_Maxterm"><path codeLine="90" d="M428.13,481.77 C427.08,520.57 429.75,589.61 456.92,640.45 C478.7,681.2 514.0102,711.917 546.1002,734.597" fill="none" id="TruthTable-to-Maxterm" style="stroke:#4A4A4A;stroke-width:1;"/><polygon fill="#4A4A4A" points="551,738.06,545.959,729.599,546.9169,735.1742,541.3417,736.1321,551,738.06" style="stroke:#4A4A4A;stroke-width:1;"/><text fill="#000000" font-family="'SimSun'" font-size="13" font-weight="bold" lengthAdjust="spacing" textLength="52.0001" x="457.92" y="614.5669">&#20026;&#20551;&#30340;&#34892;</text><text fill="#000000" font-family="'SimSun'" font-size="13" lengthAdjust="spacing" textLength="104.0001" x="514.0524" y="614.5669">&#23545;&#24212;&#21807;&#19968;&#30340;&#26497;&#22823;&#39033;</text></g><!--link Encoding to Minterm--><g class="link" data-entity-1="Encoding" data-entity-2="Minterm" data-source-line="92" data-uid="lnk31" id="link_Encoding_Minterm"><path codeLine="92" d="M746.4313,486.3411 C772.9413,514.2611 804.038,546.9995 830.518,574.8795" fill="none" id="Encoding-Minterm" style="stroke:#4A4A4A;stroke-width:1;"/><polygon fill="#4A4A4A" points="742.3,481.99,745.5963,491.2709,745.7428,485.6159,751.3977,485.7624,742.3,481.99" style="stroke:#4A4A4A;stroke-width:1;"/><polygon fill="#4A4A4A" points="834.65,579.23,831.3523,569.9496,831.2067,575.6046,825.5517,575.459,834.65,579.23" style="stroke:#4A4A4A;stroke-width:1;"/><text fill="#000000" font-family="'SimSun'" font-size="13" lengthAdjust="spacing" textLength="78.0001" x="784.92" y="524.6269">&#19979;&#26631;&#19968;&#19968;&#23545;&#24212;</text></g><!--link Encoding to Maxterm--><g class="link" data-entity-1="Encoding" data-entity-2="Maxterm" data-source-line="93" data-uid="lnk32" id="link_Encoding_Maxterm"><path codeLine="93" d="M689.8989,486.9499 C679.6889,502.6499 671.12,517.52 662.92,536.56 C633.01,606.02 614.5079,687.3848 605.5979,732.2848" fill="none" id="Encoding-Maxterm" style="stroke:#4A4A4A;stroke-width:1;"/><polygon fill="#4A4A4A" points="693.17,481.92,684.9101,487.2842,690.4441,486.1116,691.6167,491.6456,693.17,481.92" style="stroke:#4A4A4A;stroke-width:1;"/><polygon fill="#4A4A4A" points="604.43,738.17,610.1053,730.1207,605.4032,733.2656,602.2583,728.5636,604.43,738.17" style="stroke:#4A4A4A;stroke-width:1;"/><text fill="#000000" font-family="'SimSun'" font-size="13" lengthAdjust="spacing" textLength="78.0001" x="663.92" y="614.5669">&#19979;&#26631;&#19968;&#19968;&#23545;&#24212;</text></g><!--link Minterm to PDNF--><g class="link" data-entity-1="Minterm" data-entity-2="PDNF" data-source-line="95" data-uid="lnk33" id="link_Minterm_PDNF"><path codeLine="95" d="M889.01,640.88 C913.39,668.8 945.6339,705.7202 969.9839,733.6102" fill="none" id="Minterm-to-PDNF" style="stroke:#4A4A4A;stroke-width:1;"/><polygon fill="#4A4A4A" points="973.93,738.13,971.024,728.7196,970.6416,734.3635,964.9977,733.9811,973.93,738.13" style="stroke:#4A4A4A;stroke-width:1;"/><text fill="#000000" font-family="'SimSun'" font-size="13" lengthAdjust="spacing" textLength="26" x="927.92" y="683.5169">&#36890;&#36807;</text><text fill="#000000" font-family="'SimSun'" font-size="13" font-weight="bold" lengthAdjust="spacing" textLength="48.439" x="958.0524" y="683.5169">&#26512;&#21462;(&#8744;)</text><text fill="#000000" font-family="'SimSun'" font-size="13" lengthAdjust="spacing" textLength="26" x="1010.6237" y="683.5169">&#26500;&#25104;</text></g><!--link PDNF to DNF--><g class="link" data-entity-1="PDNF" data-entity-2="DNF" data-source-line="96" data-uid="lnk34" id="link_PDNF_DNF"><path codeLine="96" d="M1014.84,799.72 C1026.18,822.37 1033.6445,837.2932 1044.9745,859.9332" fill="none" id="PDNF-to-DNF" style="stroke:#4A4A4A;stroke-width:1;"/><polygon fill="none" points="1053.03,876.03,1050.3401,857.248,1039.6089,862.6183,1053.03,876.03" style="stroke:#4A4A4A;stroke-width:1;"/><text fill="#000000" font-family="'SimSun'" font-size="13" lengthAdjust="spacing" textLength="90.3971" x="1038.92" y="842.4069">&#26159;&#19968;&#31181;&#29305;&#27530;&#30340;...</text></g><!--link Maxterm to PCNF--><g class="link" data-entity-1="Maxterm" data-entity-2="PCNF" data-source-line="98" data-uid="lnk35" id="link_Maxterm_PCNF"><path codeLine="98" d="M597.38,799.72 C596.22,822.37 594.9297,847.398 593.7597,870.038" fill="none" id="Maxterm-to-PCNF" style="stroke:#4A4A4A;stroke-width:1;"/><polygon fill="#4A4A4A" points="593.45,876.03,597.9092,867.2484,593.708,871.0367,589.9198,866.8356,593.45,876.03" style="stroke:#4A4A4A;stroke-width:1;"/><text fill="#000000" font-family="'SimSun'" font-size="13" lengthAdjust="spacing" textLength="26" x="595.92" y="842.4069">&#36890;&#36807;</text><text fill="#000000" font-family="'SimSun'" font-size="13" font-weight="bold" lengthAdjust="spacing" textLength="48.439" x="626.0524" y="842.4069">&#21512;&#21462;(&#8743;)</text><text fill="#000000" font-family="'SimSun'" font-size="13" lengthAdjust="spacing" textLength="26" x="678.6237" y="842.4069">&#26500;&#25104;</text></g><!--link PCNF to CNF--><g class="link" data-entity-1="PCNF" data-entity-2="CNF" data-source-line="99" data-uid="lnk36" id="link_PCNF_CNF"><path codeLine="99" d="M571.91,937.54 C560.95,952.85 546.63,971.36 531.92,986.23 C521.55,996.71 523.5377,995.9582 511.9677,1004.9582" fill="none" id="PCNF-to-CNF" style="stroke:#4A4A4A;stroke-width:1;"/><polygon fill="none" points="497.76,1016.01,515.6516,1009.6941,508.2838,1000.2223,497.76,1016.01" style="stroke:#4A4A4A;stroke-width:1;"/><text fill="#000000" font-family="'SimSun'" font-size="13" lengthAdjust="spacing" textLength="90.3971" x="546.92" y="982.2969">&#26159;&#19968;&#31181;&#29305;&#27530;&#30340;...</text></g><!--link Literal to Clause--><g class="link" data-entity-1="Literal" data-entity-2="Clause" data-source-line="103" data-uid="lnk37" id="link_Literal_Clause"><path codeLine="103" d="M383.51,199.91 C286.34,236.85 109.92,304.93 109.92,312.22 C109.92,312.22 109.92,312.22 109.92,769.89 C109.92,847.32 197.5436,879.6882 270.4036,894.0682" fill="none" id="Literal-to-Clause" style="stroke:#4A4A4A;stroke-width:1;"/><polygon fill="#4A4A4A" points="276.29,895.23,268.2348,889.563,271.3846,894.2619,266.6858,897.4116,276.29,895.23" style="stroke:#4A4A4A;stroke-width:1;"/><text fill="#000000" font-family="'SimSun'" font-size="13" lengthAdjust="spacing" textLength="26" x="110.92" y="524.6269">&#36890;&#36807;</text><text fill="#000000" font-family="'SimSun'" font-size="13" font-weight="bold" lengthAdjust="spacing" textLength="48.439" x="141.0524" y="524.6269">&#26512;&#21462;(&#8744;)</text><text fill="#000000" font-family="'SimSun'" font-size="13" lengthAdjust="spacing" textLength="26" x="193.6237" y="524.6269">&#26500;&#25104;</text></g><!--link Clause to CNF--><g class="link" data-entity-1="Clause" data-entity-2="CNF" data-source-line="104" data-uid="lnk38" id="link_Clause_CNF"><path codeLine="104" d="M381.53,937.7 C397.47,960.83 416.0148,987.7599 431.9448,1010.8699" fill="none" id="Clause-to-CNF" style="stroke:#4A4A4A;stroke-width:1;"/><polygon fill="#4A4A4A" points="435.35,1015.81,433.5355,1006.1297,432.5123,1011.6933,426.9487,1010.6701,435.35,1015.81" style="stroke:#4A4A4A;stroke-width:1;"/><text fill="#000000" font-family="'SimSun'" font-size="13" lengthAdjust="spacing" textLength="26" x="414.92" y="982.2969">&#36890;&#36807;</text><text fill="#000000" font-family="'SimSun'" font-size="13" font-weight="bold" lengthAdjust="spacing" textLength="48.439" x="445.0524" y="982.2969">&#21512;&#21462;(&#8743;)</text><text fill="#000000" font-family="'SimSun'" font-size="13" lengthAdjust="spacing" textLength="26" x="497.6237" y="982.2969">&#26500;&#25104;</text></g><!--link Literal to DNF_Unit--><g class="link" data-entity-1="Literal" data-entity-2="DNF_Unit" data-source-line="110" data-uid="lnk40" id="link_Literal_DNF_Unit"><path codeLine="110" d="M508.22,188.39 C643.28,214.54 955.4394,274.9596 1085.2994,300.0996" fill="none" id="Literal-to-DNF_Unit" style="stroke:#4A4A4A;stroke-width:1;"/><polygon fill="#4A4A4A" points="1091.19,301.24,1083.1143,295.6023,1086.2811,300.2897,1081.5938,303.4565,1091.19,301.24" style="stroke:#4A4A4A;stroke-width:1;"/><text fill="#000000" font-family="'SimSun'" font-size="13" lengthAdjust="spacing" textLength="26" x="839.92" y="248.8469">&#36890;&#36807;</text><text fill="#000000" font-family="'SimSun'" font-size="13" font-weight="bold" lengthAdjust="spacing" textLength="48.439" x="870.0524" y="248.8469">&#21512;&#21462;(&#8743;)</text><text fill="#000000" font-family="'SimSun'" font-size="13" lengthAdjust="spacing" textLength="26" x="922.6237" y="248.8469">&#26500;&#25104;</text></g><!--link DNF_Unit to DNF--><g class="link" data-entity-1="DNF_Unit" data-entity-2="DNF" data-source-line="111" data-uid="lnk41" id="link_DNF_Unit_DNF"><path codeLine="111" d="M1204.87,335.74 C1250.5,357.11 1306.92,394.74 1306.92,450.11 C1306.92,450.11 1306.92,450.11 1306.92,769.89 C1306.92,846.26 1219.431,879.0124 1149.411,893.7724" fill="none" id="DNF_Unit-to-DNF" style="stroke:#4A4A4A;stroke-width:1;"/><polygon fill="#4A4A4A" points="1143.54,895.01,1153.1715,897.0676,1148.4325,893.9787,1151.5214,889.2396,1143.54,895.01" style="stroke:#4A4A4A;stroke-width:1;"/><text fill="#000000" font-family="'SimSun'" font-size="13" lengthAdjust="spacing" textLength="26" x="1307.92" y="614.5669">&#36890;&#36807;</text><text fill="#000000" font-family="'SimSun'" font-size="13" font-weight="bold" lengthAdjust="spacing" textLength="48.439" x="1338.0524" y="614.5669">&#26512;&#21462;(&#8744;)</text><text fill="#000000" font-family="'SimSun'" font-size="13" lengthAdjust="spacing" textLength="26" x="1390.6237" y="614.5669">&#26500;&#25104;</text></g><!--link Formula to PDNF--><g class="link" data-entity-1="Formula" data-entity-2="PDNF" data-source-line="115" data-uid="lnk42" id="link_Formula_PDNF"><path codeLine="115" d="M566.7313,334.5983 C762.2913,366.5783 1109.83,436.04 1183.92,536.56 C1211.32,573.73 1205.35,599.55 1183.92,640.45 C1160.48,685.2 1118.7403,714.6248 1078.0703,735.4548" fill="none" id="Formula-PDNF" style="stroke:#4A4A4A;stroke-width:1;"/><polygon fill="#4A4A4A" points="560.81,333.63,569.0465,339.03,565.7445,334.4369,570.3376,331.1349,560.81,333.63" style="stroke:#4A4A4A;stroke-width:1;"/><polygon fill="#4A4A4A" points="1072.73,738.19,1082.5639,737.6475,1077.1803,735.9107,1078.917,730.5271,1072.73,738.19" style="stroke:#4A4A4A;stroke-width:1;"/><text fill="#000000" font-family="'SimSun'" font-size="13" lengthAdjust="spacing" textLength="52.0001" x="1175.92" y="524.6269">&#31561;&#20215;&#36716;&#25442;</text></g><!--link Formula to PCNF--><g class="link" data-entity-1="Formula" data-entity-2="PCNF" data-source-line="116" data-uid="lnk43" id="link_Formula_PCNF"><path codeLine="116" d="M329.8711,346.63 C283.4811,367.79 242.92,399.14 242.92,450.11 C242.92,450.11 242.92,450.11 242.92,769.89 C242.92,796.51 379.9688,842.9368 482.8888,874.1868" fill="none" id="Formula-PCNF" style="stroke:#4A4A4A;stroke-width:1;"/><polygon fill="#4A4A4A" points="335.33,344.14,325.4816,344.2357,330.7809,346.215,328.8016,351.5143,335.33,344.14" style="stroke:#4A4A4A;stroke-width:1;"/><polygon fill="#4A4A4A" points="488.63,875.93,481.1804,869.4877,483.8457,874.4773,478.8561,877.1426,488.63,875.93" style="stroke:#4A4A4A;stroke-width:1;"/><text fill="#000000" font-family="'SimSun'" font-size="13" lengthAdjust="spacing" textLength="52.0001" x="243.92" y="614.5669">&#31561;&#20215;&#36716;&#25442;</text></g><!--link PDNF to PCNF--><g class="link" data-entity-1="PDNF" data-entity-2="PCNF" data-source-line="117" data-uid="lnk44" id="link_PDNF_PCNF"><path codeLine="117" d="M904.4374,801.6959 C836.5174,824.3159 755.0527,851.4544 687.1827,874.0544" fill="none" id="PDNF-PCNF" style="stroke:#4A4A4A;stroke-width:1;"/><polygon fill="#4A4A4A" points="910.13,799.8,900.3272,798.8487,905.3862,801.3799,902.855,806.4389,910.13,799.8" style="stroke:#4A4A4A;stroke-width:1;"/><polygon fill="#4A4A4A" points="681.49,875.95,691.2928,876.9017,686.2339,874.3703,688.7653,869.3115,681.49,875.95" style="stroke:#4A4A4A;stroke-width:1;"/><text fill="#000000" font-family="'SimSun'" font-size="13" lengthAdjust="spacing" textLength="52.0001" x="820.92" y="842.4069">&#20114;&#20026;&#23545;&#20598;</text></g><!--SRC=[dLPRJnjN47xthpXo7h2bc12f5ma14fZGboIAHDgdIfK1XxWOson6RTKYsH1Vm821EfIBmTpj55zG8U0BjgNy5DXpTlsKlz0vv-okTmr4j5X8Uvapyyqttyni6xBPR4ZErwHgdknUugluvwi5EVy1RzN8rZa-gah963KnJOwvF3w7u1X7tg6VdSD-zBi9eJx7yDYeu9toZDYzRg-07WryJN_mfbSGlBye3x_gfJzgxXL6d8BnwRJEiyVhTzxZ5_wUTRIwwEll-_QRFdWwuFNuNph6dSWyw1eVdFAO3MuPbjicfZQMEyvlYgKvibl4zLboF8Fh7rc-IfRchg4Ul59jxA_Z-3eEpIABxp6Qi7Oz6Uen8ySa-i4XCCGa6S2fCabcfSrtqkuQFZo7X_XuvlFLfW-9bGDvBtCTI8gLUNpuGIp66bjmkmqezN78MWJd_aAMvow_Kt2ucq6K1omGXm61vF89YQxXq0LUFeOSu9LOYq74JWG8FsLzu9pnwNQ-yIFl6zL99m8SKYed5tA002SpSdr3B0RaQ1R7J-0L1m6lRW8pFtfml21MZgJbi9m-8D5bN3oc9ha3AV4HJ20-tChdANwhfGv7JNSG6Cg2lBIa1hp2-9JRmPAI4fb6e2BNLkHWGghyAHSMBTVHz6Dq7StGNE0Yl6gLAky00WG1BkLQ3NnnYY5XC4mZomIrfwbRAR4-q91Z5EfDTfPnV4rUc8KJoDB_Si2AS3HC4WKpUlJSDVhMFpZsMvzxYYjFNuwT83wDD_PAoFB2vG7onfiLKHwm8r3ykG19pl7AD6QhE5AMbaw1L9BT0xX04LwE0WJADmEjm1w_dWcYRWgOuP-0DzFmpwecK62qR4gaJYHMwvn1iLW6T58oHT4e_fTIEBTCjlV4oWNLbJ4HiLWnSl2Aag3bGkyCYUXpRyRWBgXtba2Y00d26nWN79PYjHl1aJ1eKwnKvK8GpCLI32nPRgtyjjP5WzH4PE5w1EUSGok2IyIFSY3LVJZVYIozm66VbKd0OeVhVYkBgLS2Tw56jDzMmdU2q-cvImU7QQu3nwyjEk0F7ge3ZKE33bvm7VWK-Hfqe7Ql4kYM370myXzaO2JWbTqW0_lTCc2fwsAeKluVCYWlt243G8pZHr0EjsDgqcb5JvJgwcS5VwUWGveaRgcIysdHcBGgLEh3tT90Cuf60D9mtPUuGNSPfhiqqrscgJjTLEXM7BY2mKNcWTg25lArCEL_-zenvER9KJL2Gfn8E1ACG6o-cl3b4GvTqarJYDDvlRU02oLSJi2rMFnR_XW3_wr1hzQatQ0Mwvbds3lYyepgrWW_1Z6WD79z2qSl0A9qM3PfJ7PtmBhhVcf5jXxKyPG6KDTcfIoTn73eJ3gh80k-_4Uivs4nm5eXP- -jR8NItMY3SzhcCPFr0jcXKxozlPssTAeixGNC9dM_KMDbBO1n8x0froD8gnbT2Krvm5s6bGv9kJdkrAn5L9oOJEgIwMflxz6HpQ5mjXKeZ5xuAD1LX7hInY_le39KXMsW1HQQbq1h0crgcc-vKTjNSSCh-mKthEi0ZbQqBXqQ17xW8mAQZ5K_mC-RMusLsNIFiKbrHctf3Z1GtagooZ1R5ZRR7ps8dm0QAUZqeZHN8lbvG0zyKkTASERStk9SLq-ZSxlgtFv5vro1Dm7ebBD68i-L9ysKRW8hJ7Xj22OXsJw20ut4XbmeuF06g5BUF-6cK00-e5XtHQHSZHiOXAZCd0UnejYoOv32Wv9jGm13B8VvXmzyR9DYY6oSmY0bqHKoFy-M85C3jHTBAHAZNs5mWjKnfdKwsF5UWez2lFWUsbhTeJzzxt7n3tNzoDGFikQyJFDvEMtWGFFne8mqQ-NemxXJoodNTyZI4H_CU5NP9goSMXEhIgMEeUl5ogLSpPB5VNEBYVqk4tRGy5uihz9MX7u8NfZ_1G00]--></g></svg>